<svg width="157" height="20" viewBox="0 0 157 20" fill="none" xmlns="http://www.w3.org/2000/svg">
<g clip-path="url(#clip0_375_127)">
<path d="M19.5032 16.2835H15.8579L18.138 1.76306H21.7831L19.5032 16.2835Z" fill="#2439D0"/>
<path d="M32.7171 2.11831C31.998 1.82451 30.8576 1.50012 29.4475 1.50012C25.8476 1.50012 23.3126 3.47726 23.2971 6.30398C23.2672 8.38953 25.1121 9.54789 26.4919 10.2433C27.9022 10.9539 28.3816 11.4177 28.3816 12.051C28.3673 13.0238 27.242 13.4722 26.1925 13.4722C24.7371 13.4722 23.9573 13.241 22.7722 12.6998L22.2922 12.4678L21.7821 15.7273C22.6371 16.1285 24.2122 16.4845 25.8476 16.5001C29.6725 16.5001 32.1627 14.5536 32.1922 11.5413C32.2067 9.8883 31.2326 8.62174 29.1323 7.58676C27.8574 6.92238 27.0766 6.47439 27.0766 5.79461C27.0915 5.17662 27.737 4.54365 29.1762 4.54365C30.3613 4.51265 31.232 4.80604 31.8916 5.09963L32.2213 5.25382L32.7171 2.11831Z" fill="#2439D0"/>
<path d="M37.5595 11.1394C37.8597 10.3052 39.0148 7.07671 39.0148 7.07671C38.9997 7.10771 39.3144 6.22713 39.4944 5.68655L39.7492 6.93771C39.7492 6.93771 40.4395 10.4134 40.5894 11.1394C40.0197 11.1394 38.2795 11.1394 37.5595 11.1394ZM42.0591 1.76306H39.2395C38.37 1.76306 37.7094 2.02545 37.3342 2.96783L31.9196 16.2833H35.7445C35.7445 16.2833 36.3742 14.4911 36.5095 14.1051C36.9291 14.1051 40.65 14.1051 41.1898 14.1051C41.2945 14.6149 41.6248 16.2833 41.6248 16.2833H45L42.0591 1.76306Z" fill="#2439D0"/>
<path d="M12.8098 1.76306L9.23981 11.6646L8.84971 9.65644C8.18969 7.3393 6.11976 4.82178 3.80981 3.57L7.07977 16.2681H10.9346L16.6644 1.76306H12.8098Z" fill="#2439D0"/>
<path d="M5.92496 1.76318H0.0600008L0 2.05657C4.57503 3.26154 7.60499 6.16607 8.84986 9.65718L7.57489 2.98376C7.36498 2.05637 6.71992 1.79377 5.92496 1.76318Z" fill="#E69621"/>
</g>
<path d="M48.49 19.14C48.7433 18.7667 48.9467 18.3867 49.1 18C49.2533 17.62 49.3633 17.2167 49.43 16.79C49.4967 16.37 49.53 15.9167 49.53 15.43C49.53 15.09 49.53 14.74 49.53 14.38C49.53 14.02 49.53 13.6567 49.53 13.29L50.56 13.21C50.9933 13.25 51.3067 13.4167 51.5 13.71C51.6933 13.9967 51.79 14.3533 51.79 14.78C51.79 15.2133 51.7267 15.64 51.6 16.06C51.48 16.48 51.3133 16.88 51.1 17.26C50.8867 17.64 50.65 17.9867 50.39 18.3C50.13 18.6133 49.8633 18.8833 49.59 19.11L48.49 19.14Z" fill="white"/>
<path d="M64.9832 0.545001C66.7218 0.545001 68.3326 1.07395 69.6728 1.97212C67.7817 3.70973 66.5773 6.2103 66.5773 9.00003C66.5773 11.7851 67.7757 14.3053 69.6693 16.0302C68.3299 16.927 66.7203 17.4551 64.9832 17.4551C60.3094 17.4551 56.5282 13.6738 56.5282 9.00003C56.5282 4.32626 60.3094 0.545001 64.9832 0.545001Z" stroke="#AD0000" stroke-width="1.05631"/>
<path d="M84.5204 9.00003C84.5204 13.6738 80.7391 17.4551 76.0654 17.4551C74.328 17.4551 72.7182 16.9268 71.3786 16.0298C73.29 14.2882 74.4713 11.788 74.4713 9.00003C74.4713 6.21011 73.2667 3.70939 71.3754 1.97176C72.7133 1.07392 74.3239 0.545001 76.0625 0.545001C80.7383 0.545001 84.5204 4.35153 84.5204 9.00003Z" stroke="#E69621" stroke-width="1.05631"/>
<path d="M90.42 16C90.42 15.2667 90.42 14.5633 90.42 13.89C90.42 13.2167 90.42 12.4667 90.42 11.64V10.64C90.42 10.0267 90.42 9.46667 90.42 8.96C90.42 8.44667 90.42 7.95667 90.42 7.49C90.42 7.01667 90.42 6.54 90.42 6.06L92.48 5.99C92.48 6.45 92.48 6.90667 92.48 7.36C92.48 7.80667 92.48 8.27667 92.48 8.77C92.48 9.25667 92.48 9.79333 92.48 10.38V13.02H92.63L94.49 9.98C94.8967 9.32 95.3 8.66333 95.7 8.01C96.1 7.35 96.4967 6.7 96.89 6.06H99.12C99.12 6.54 99.12 7.01667 99.12 7.49C99.12 7.95667 99.12 8.44667 99.12 8.96C99.12 9.46667 99.12 10.0267 99.12 10.64V11.64C99.12 12.4667 99.12 13.2167 99.12 13.89C99.12 14.5633 99.12 15.2667 99.12 16H97.07C97.07 15.28 97.07 14.5867 97.07 13.92C97.07 13.2533 97.07 12.5167 97.07 11.71V9.03H96.91L95.08 12.03C94.6733 12.6967 94.2667 13.3633 93.86 14.03C93.46 14.69 93.06 15.3467 92.66 16H90.42Z" fill="white"/>
<path fill-rule="evenodd" clip-rule="evenodd" d="M142.156 8.29688V16.2902H146.597V11.5534H151.63C153.748 11.5377 155.548 10.1846 156.226 8.29688H142.156Z" fill="#4DB45E"/>
<path fill-rule="evenodd" clip-rule="evenodd" d="M141.563 1.70972C141.822 4.97695 144.913 7.5567 148.688 7.5567C148.7 7.5567 156.41 7.5567 156.41 7.5567C156.467 7.25705 156.496 6.94778 156.496 6.63154C156.496 3.92505 154.313 1.72974 151.612 1.70985L141.563 1.70972Z" fill="#059BD6"/>
<path fill-rule="evenodd" clip-rule="evenodd" d="M134.99 7.47895L134.994 7.4715L134.994 7.47161C135.04 7.38992 135.127 7.33466 135.227 7.33466C135.372 7.33466 135.49 7.44996 135.494 7.59368L135.494 7.59371V16.2162H139.935V1.70972H135.494C134.931 1.72846 134.294 2.1417 134.058 2.64895L130.524 10.2276C130.515 10.2586 130.501 10.2875 130.484 10.3135L130.483 10.316L130.482 10.3158C130.429 10.3928 130.34 10.4432 130.239 10.4432C130.075 10.4432 129.943 10.3106 129.943 10.1471V1.70972H125.502V16.2162H129.943V16.2145C130.5 16.1854 131.121 15.7768 131.354 15.2769L134.981 7.4985C134.984 7.49184 134.987 7.48532 134.99 7.47895Z" fill="#4DB45E"/>
<path fill-rule="evenodd" clip-rule="evenodd" d="M118.408 7.72692L115.812 16.2162H112.618L110.021 7.72177C109.996 7.58574 109.876 7.48269 109.733 7.48269C109.572 7.48269 109.441 7.61358 109.441 7.77504C109.441 7.77627 109.441 7.7775 109.441 7.77873L109.441 16.2162H105V1.70972H108.812H109.947C110.764 1.70972 111.62 2.34384 111.859 3.12486L114.02 10.1938C114.128 10.5455 114.302 10.5452 114.41 10.1938L116.571 3.12486C116.81 2.3433 117.666 1.70972 118.483 1.70972L119.618 1.70972H123.429V16.2162H118.988V7.77874C118.988 7.7775 118.988 7.77627 118.988 7.77504C118.988 7.61358 118.857 7.48269 118.696 7.48269C118.551 7.48269 118.431 7.58835 118.408 7.72692Z" fill="#4DB45E"/>
<defs>
<clipPath id="clip0_375_127">
<rect width="45" height="15" fill="white" transform="translate(0 1.5)"/>
</clipPath>
</defs>
</svg>
