<svg width="36" height="36" viewBox="0 0 36 36" fill="none" xmlns="http://www.w3.org/2000/svg">
<path d="M29.4802 18.4115L24.1226 18.8024C24.1574 17.9279 24.225 17.2224 24.3342 16.6525C24.4657 15.9663 24.6513 15.5109 24.8826 15.2008C25.3151 14.6207 26.0258 14.3979 27.4728 14.3979H27.4782H27.4835H27.4889H27.4943H27.4996H27.505H27.5104H27.5157H27.5211H27.5265H27.5319H27.5372H27.5426H27.548H27.5533H27.5587H27.5641H27.5695H27.5748H27.5802H27.5856H27.591H27.5963H27.6017H27.6071H27.6125H27.6179H27.6232H27.6286H27.634H27.6394H27.6447H27.6501H27.6555H27.6609H27.6662H27.6716H27.677H27.6824H27.6878H27.6931H27.6985H27.7039H27.7093H27.7146H27.72H27.7254H27.7308H27.7362H27.7415H27.7469H27.7523H27.7577H27.763H27.7684H27.7738H27.7792H27.7845H27.7899H27.7953H27.8007H27.806H27.8114H27.8168H27.8221H27.8275H27.8329H27.8383H27.8436H27.849H27.8544H27.8597H27.8651H27.8705H27.8758H27.8812H27.8866H27.8919H27.8973H27.9027H27.908H27.9134H27.9188H27.9241H27.9295H27.9348H27.9402H27.9456H27.9509H27.9563H27.9616H27.967H27.9723H27.9777H27.9831H27.9884H27.9938H27.9991H28.0045H28.0098H28.0152H28.0205H28.0258H28.0312H28.0365H28.0419H28.0472H28.0526H28.0579H28.0632H28.0686H28.0739H28.0792H28.0846H28.0899H28.0952H28.1006H28.1059H28.1112H28.1166H28.1219H28.1272H28.1325H28.1378H28.1432H28.1485H28.1538H28.1591H28.1644H28.1697H28.1751H28.1804H28.1857H28.191H28.1963H28.2016H28.2069H28.2122H28.2175H28.2228H28.2281H28.2334H28.2387H28.244H28.2493H28.2546H28.2598H28.2651H28.2704H28.2757H28.281H28.2863H28.2915H28.2968H28.3021H28.3074H28.3126H28.3179H28.3232H28.3284H28.3337H28.3389H28.3442H28.3495H28.3547H28.36H28.3652H28.3705H28.3757H28.381H28.3862H28.3914H28.3967H28.4019H28.4071H28.4124H28.4176H28.4228H28.4281H28.4333H28.4385H28.4437H28.4489H28.4542H28.4594H28.4646H28.4698H28.475H28.4802H28.4854H28.4906H28.4958H28.501H28.5062H28.5114H28.5166H28.5217H28.5269H28.5321H28.5373H28.5425H28.5476H28.5528H28.558H28.5631H28.5683H28.5735H28.5786H28.5838H28.5889H28.5941H28.5992H28.6044H28.6095H28.6146H28.6198H28.6249H28.63H28.6352H28.6403H28.6454H28.6505H28.6556H28.6608H28.6659H28.671H28.6761H28.6812H28.6863H28.6914H28.6965H28.7016H28.7066H28.7117H28.7168H28.7219H28.727H28.732H28.7371H28.7422H28.7472H28.7523H28.7573H28.7624H28.7675H28.7725H28.7775H28.7826H28.7876H28.7927H28.7977H28.8027H28.8077H28.8128H28.8178H28.8228H28.8278H28.8328H28.8378H28.8428H28.8478H28.8528H28.8578H28.8628H28.8678H28.8727H28.8777H28.8827H28.8877H28.8926H28.8976H28.9026H28.9075H28.9125H28.9174H28.9224H28.9273H28.9322H28.9372H28.9421H28.947H28.9519H28.9569H28.9618H28.9667H28.9716H28.9765H28.9814H28.9863H28.9912H28.9961H29.001H29.0058H29.0107H29.0156H29.0205H29.0253H29.0302H29.035H29.0399H29.0447H29.0496H29.0544H29.0593H29.0641H29.0689H29.0737H29.0786H29.0834H29.0882H29.093H29.0978H29.1026H29.1074H29.1122H29.117H29.1217H29.1265H29.1313H29.1361H29.1408H29.1456H29.1503H29.1551H29.1598H29.1646H29.1693H29.1741H29.1788H29.1835H29.1882H29.193H29.1977H29.2024H29.2071H29.2118H29.2165H29.2212H29.2258H29.2305H29.2352H29.2399H29.2445H29.2492H29.2538H29.2585H29.2631H29.2678H29.2724H29.2771H29.2817H29.2863H29.2909H29.2955H29.3001H29.3047H29.3093H29.3139H29.3185H29.3231H29.3277H29.3323H29.3368H29.3414H29.346H29.3505H29.3551H29.3596H29.3641H29.3687H29.3732H29.3777H29.3822H29.3868H29.3913H29.3958H29.4003H29.4048H29.4092H29.4137H29.4182H29.4227H29.4271H29.4316H29.4361H29.4405H29.445H29.4494H29.4538H29.4583H29.4627H29.4671H29.4715H29.4759H29.4803H29.4847H29.4891H29.4935H29.4979H29.5022H29.5066H29.511H29.5153H29.5197H29.524H29.5284H29.5327H29.537H29.5414H29.5457H29.55H29.5543H29.5586H29.5629H29.5672H29.5715H29.5757H29.58H29.5843H29.5885H29.5928H29.597H29.6013H29.6055H29.6097H29.614H29.6182H29.6224H29.6266H29.6308H29.635H29.6392H29.6434H29.6476H29.6517H29.6559H29.66H29.6642H29.6683H29.6725H29.6766H29.6807H29.6849H29.689H29.6931H29.6972H29.7013H29.7054H29.7095H29.7135H29.7176H29.7217H29.7257H29.7298H29.7338H29.7379H29.7419H29.7459H29.7499H29.754H29.758H29.762H29.766H29.7699H29.7739H29.7779H29.7819H29.7858H29.7898H29.7937H29.7977H29.8016H29.8055H29.8095H29.8134H29.8173H29.8212H29.8251H29.829H29.8328H29.8367H29.8406H29.8444H29.8483H29.8521H29.856H29.8598H29.8636H29.8675H29.8713H29.8751H29.8789H29.8827H29.8864H29.8902H29.894H29.8978H29.9015H29.9053H29.909H29.9127H29.9165H29.9202H29.9239H29.9276H29.9313H29.935H29.9387H29.9424H29.946H29.9497H29.9534H30.4534V13.8979V8.06614V7.62886L30.02 7.5706C28.3678 7.3485 26.7021 7.24754 25.0357 7.26851C21.9076 7.2692 19.7486 8.27412 18.4103 10.3599C17.1058 12.393 16.6392 15.3718 16.6392 19.1819V19.2934L14.0643 19.4724L13.603 19.5045L13.599 19.9669L13.5566 24.7979L13.552 25.3123L14.0664 25.3022L16.6263 25.2518C16.6245 27.8816 16.609 30.5801 16.5956 32.9284C16.5906 33.8 16.5858 34.6233 16.5822 35.377C14.168 35.3248 11.8033 35.2757 9.87138 35.2757C6.09375 35.2757 3.79356 34.1444 2.41773 32.3891C1.0224 30.6089 0.5 28.0916 0.5 25.1646C0.5 22.1976 0.528596 19.0726 0.557214 16.4067C0.564005 15.7741 0.570802 15.167 0.577218 14.5939C0.597811 12.7545 0.614486 11.2651 0.614486 10.404C0.614486 7.12848 1.32889 4.68135 2.83407 3.05189C4.33195 1.43032 6.6998 0.525881 10.2191 0.525881C11.4689 0.525881 14.3371 0.520184 17.3813 0.514136L17.984 0.51294C21.2472 0.506469 24.6027 0.5 26.3067 0.5C29.5264 0.5 31.7812 1.17822 33.2469 2.72687C34.72 4.28333 35.5 6.82705 35.5 10.8095C35.5 11.4121 35.4867 12.1729 35.4681 13.2352C35.4562 13.9176 35.4421 14.7244 35.428 15.6936C35.3919 18.1653 35.3558 21.6786 35.3558 26.8416C35.3496 30.0195 34.609 32.1292 32.9909 33.4708C31.3476 34.8333 28.6894 35.5 24.6106 35.5H24.356C24.2813 32.5413 24.192 28.5509 24.1386 25.1067L28.5853 25.0175L28.9997 25.0092L29.0684 24.6004L30.0097 18.9929L30.1151 18.3651L29.4802 18.4115Z" stroke="white"/>
</svg>
