<svg width="42" height="34" viewBox="0 0 42 34" fill="none" xmlns="http://www.w3.org/2000/svg">
<path d="M24.5045 26.4461L24.1987 26.2556L23.9212 26.4854L18.1779 31.2403L17.0903 31.386L13.5076 19.1903L13.4333 18.9371L13.1822 18.8556L1.51189 15.0686L40.1937 0.502016L41.4008 0.528696L35.3232 33.1881L24.5045 26.4461ZM34.3294 5.8844L34.1617 5.86478L34.0165 5.9508L15.6386 16.8353L15.3219 17.0229L15.4069 17.381L17.5232 26.3002L17.6371 26.7803L18.1188 26.6727L18.6986 26.5431L18.9781 26.4806L19.0656 26.2079L21.232 19.4592L35.8123 6.90205L36.6752 6.15895L35.5442 6.02657L34.3294 5.8844Z" stroke="white"/>
</svg>
