<svg width="36" height="36" viewBox="0 0 36 36" fill="none" xmlns="http://www.w3.org/2000/svg">
<path d="M26.5361 9.55156L20.8238 15.7798L20.9846 10.7106L21.0007 10.203L20.493 10.1948L14.3191 10.0941L13.6307 10.0829L13.833 10.741L14.5333 13.0184L14.6608 19.322C14.4008 19.1567 14.1181 18.9129 13.8216 18.5864C13.2892 18.0001 12.7651 17.2052 12.307 16.3076C11.384 14.4988 10.7821 12.3795 10.8625 10.8681L10.891 10.3343L10.3565 10.3415L4.47521 10.4212L3.91671 10.4288L3.98582 10.983C4.71682 16.8458 7.2777 21.2254 10.3808 24.0416C13.47 26.8453 17.1316 28.1252 20.0599 27.7041L20.4755 27.6443L20.4885 27.2247L20.6106 23.2815C20.9188 23.1259 21.2809 22.9298 21.6884 22.6959L25.3849 27.4934L25.5452 27.7015L25.8076 27.6875L32.3291 27.3394L33.3016 27.2875L32.6927 26.5275L26.7547 19.1159C28.7306 17.4509 30.4428 15.5004 31.8331 13.3296L32.326 12.5599H31.5661L27.1924 9.48069L26.8331 9.22773L26.5361 9.55156ZM24.6233 35C22.4416 35 19.797 34.9456 17.1735 34.8911L17.0664 34.8888C14.4825 34.8351 11.925 34.7819 9.87138 34.7819C6.08898 34.7819 3.78763 33.6799 2.41346 31.9754C1.02162 30.2491 0.5 27.8079 0.5 24.9656C0.5 22.0812 0.528595 19.0431 0.557213 16.4513C0.564003 15.8363 0.570799 15.2462 0.577215 14.689C0.597809 12.9007 0.614488 11.4524 0.614488 10.615C0.614488 7.43522 1.32746 5.06231 2.82926 3.48166C4.32636 1.90597 6.69601 1.02516 10.2191 1.02516C11.4689 1.02516 14.337 1.01962 17.3811 1.01374L17.984 1.01258C21.2472 1.00629 24.6027 1 26.3067 1C29.5296 1 31.7865 1.66059 33.2518 3.16575C34.7212 4.67516 35.5 7.14152 35.5 11.0092C35.5 11.5948 35.4867 12.3341 35.4682 13.3665C35.4562 14.03 35.4421 14.8146 35.428 15.7573C35.3919 18.1606 35.3558 21.5767 35.3558 26.5969C35.3558 29.6805 34.6204 31.7246 33.0072 33.0261C31.3648 34.3512 28.7042 35 24.6233 35Z" stroke="white"/>
</svg>
