<svg width="30" height="30" viewBox="0 0 30 30" fill="none" xmlns="http://www.w3.org/2000/svg">
<path d="M15.5749 26.0789L15.5748 26.0789L15.5746 26.079C15.5296 26.1069 15.4706 26.107 15.4255 26.0791L15.4252 26.0789L15.4251 26.0789L15.4232 26.0777L15.414 26.0719L15.3747 26.0471C15.3395 26.0247 15.2864 25.9908 15.2169 25.9459C15.078 25.856 14.8735 25.7221 14.615 25.548C14.0979 25.1997 13.3658 24.6915 12.5112 24.0549C10.7979 22.779 8.6098 21.0007 6.67418 18.9733L15.5749 26.0789ZM15.5749 26.0789L15.5768 26.0777L15.586 26.0719L15.6253 26.047C15.6605 26.0247 15.7136 25.9908 15.7831 25.9459C15.922 25.856 16.1265 25.7221 16.385 25.548C16.902 25.1997 17.6341 24.6915 18.4887 24.055C20.202 22.7791 22.3901 21.0008 24.3259 18.9732C27.0751 16.0933 29.1 12.8705 29.1 9.96832C29.1 6.07387 25.9122 2.9 21.9736 2.9C20.0465 2.9 18.2988 3.65936 17.0149 4.8934C16.1819 5.694 14.8176 5.69392 13.9848 4.89328C12.7012 3.65933 10.9537 2.9 9.02637 2.9C5.08756 2.9 1.9 6.07412 1.9 9.96831C1.9 12.8704 3.92486 16.0929 6.67411 18.9732L15.5749 26.0789Z" stroke="white" stroke-width="1.8"/>
</svg>
