<svg width="30" height="30" viewBox="0 0 30 30" fill="none" xmlns="http://www.w3.org/2000/svg">
<path fill-rule="evenodd" clip-rule="evenodd" d="M3 12C3 17.5228 7.47715 22 13 22C15.4013 22 17.6049 21.1536 19.3287 19.7429L26.2929 26.7071C26.6834 27.0976 27.3166 27.0976 27.7071 26.7071C28.0976 26.3166 28.0976 25.6834 27.7071 25.2929L20.7429 18.3287C22.1536 16.6049 23 14.4013 23 12C23 6.47715 18.5228 2 13 2C7.47715 2 3 6.47715 3 12ZM5 12C5 16.4183 8.58173 20 13 20C17.4183 20 21 16.4183 21 12C21 7.58173 17.4183 4 13 4C8.58173 4 5 7.58173 5 12Z" fill="white"/>
</svg>
