<svg width="30" height="30" viewBox="0 0 30 30" fill="none" xmlns="http://www.w3.org/2000/svg">
<path d="M9.30472 20.9122H25.1396C25.365 20.9122 25.5414 20.9973 25.6606 21.1307C25.7782 21.2622 25.8349 21.4349 25.8349 21.6044C25.8349 21.7739 25.7782 21.9466 25.6606 22.0782C25.5414 22.2115 25.365 22.2966 25.1396 22.2966H8.14883C7.63503 22.2966 7.29128 21.7579 7.5297 21.2864L9.13203 17.8224C8.708 15.6963 8.27673 13.5773 7.84541 11.4581L7.84507 11.4564L7.84482 11.4552C7.41435 9.34012 6.98383 7.22484 6.5605 5.10246L3.24907 3.21855L3.24906 3.21857L3.24719 3.21745C3.05463 3.10227 2.94695 2.93766 2.91239 2.76085C2.87828 2.58636 2.91654 2.40666 3.00255 2.25823C3.08858 2.10978 3.22555 1.9872 3.39563 1.93167C3.56778 1.87546 3.76582 1.89067 3.96495 2.00462C3.96516 2.00474 3.96536 2.00485 3.96556 2.00497L7.5507 3.99747L7.55071 3.99744L7.55291 3.99874C7.71248 4.09282 7.88745 4.25806 7.92398 4.50074L8.46552 7.13349H27.4031C27.883 7.13349 28.2256 7.63416 28.0562 8.07491L25.2069 17.4849C25.1344 17.7966 24.824 17.9916 24.5244 17.9925L10.3892 18.5677L9.30472 20.9122ZM19.1016 25.3246C19.1016 24.3434 19.9124 23.5492 20.9066 23.5492C21.9314 23.5492 22.7116 24.3445 22.7116 25.3246C22.7116 26.3058 21.9008 27.1 20.9066 27.1C19.9124 27.1 19.1016 26.3058 19.1016 25.3246ZM9.43043 25.3246C9.43043 24.3434 10.2411 23.5492 11.2354 23.5492C12.2296 23.5492 13.0403 24.3434 13.0403 25.3246C13.0403 26.3058 12.2296 27.1 11.2354 27.1C10.2411 27.1 9.43043 26.3058 9.43043 25.3246ZM26.4159 8.54671H8.71217L10.4639 17.1537L23.9768 16.6111L26.4159 8.54671Z" fill="white" stroke="white" stroke-width="0.2"/>
</svg>
